<?xml version="1.0" encoding="UTF-8" standalone="no"?>
<!-- Created with Inkscape (http://www.inkscape.org/) -->

<svg
   width="153.55139mm"
   height="174.95103mm"
   viewBox="0 0 153.55139 174.95103"
   version="1.1"
   id="svg1"
   xml:space="preserve"
   xmlns="http://www.w3.org/2000/svg"
   xmlns:svg="http://www.w3.org/2000/svg"><defs
     id="defs1" /><g
     id="layer1"
     transform="translate(-360.8274,-234.05167)"><path
       style="fill:#000000"
       d="m 430.34455,408.66246 -0.42957,-0.33791 v -22.7175 -22.7175 l -1.06006,-0.0547 -1.06007,-0.0547 3.4e-4,21.0605 c 3.1e-4,18.92028 -0.0257,21.08652 -0.2556,21.31646 -0.58922,0.58921 -1.52025,0.52421 -2.33715,-0.16317 l -0.49878,-0.41969 -0.0436,-21.80947 c -0.038,-19.00689 -0.0748,-21.84696 -0.2858,-22.10122 -0.34408,-0.41454 -1.48002,-1.10659 -1.60738,-0.97927 -0.0588,0.0588 -0.12684,9.45419 -0.15124,20.87873 l -0.0444,20.77189 -0.41683,0.27312 c -0.82524,0.54072 -2.00216,0.22911 -2.45705,-0.65055 -0.20877,-0.40373 -0.24035,-1.60243 -0.21493,-8.15747 0.0164,-4.22631 0.0227,-14.15869 0.0141,-22.07195 -0.0154,-14.08263 -0.0224,-14.38775 -0.32929,-14.38775 -0.17247,0 -0.64934,-0.2563 -1.05972,-0.56954 l -0.74614,-0.56955 v 21.59169 21.59169 l -0.36235,0.25379 c -0.71601,0.50152 -1.9295,0.1908 -2.4687,-0.63213 -0.24939,-0.38061 -0.27041,-2.23735 -0.26434,-23.35155 l 0.007,-22.93806 -0.55912,-0.58202 c -0.30751,-0.32012 -0.70769,-0.83112 -0.88928,-1.13557 l -0.33017,-0.55354 -0.0942,0.55354 c -0.0518,0.30445 -0.11458,10.42117 -0.13945,22.48162 -0.0249,12.06044 -0.10217,22.01978 -0.17177,22.13186 -0.0696,0.11209 -0.44247,0.2038 -0.82859,0.2038 -0.85015,0 -1.43046,-0.40887 -1.90751,-1.34397 -0.33587,-0.65837 -0.33713,-0.74047 -0.31402,-20.56763 0.0232,-19.86302 0.056,-21.28785 0.60718,-26.36573 0.0605,-0.55719 -0.004,-0.92187 -0.24987,-1.40289 -0.18238,-0.3575 -0.37935,-1.0458 -0.43771,-1.52957 -0.19942,-1.65312 -0.36942,-2.08977 -0.85468,-2.19523 -0.24338,-0.0529 -0.8827,-0.28302 -1.42071,-0.51139 -0.61554,-0.26128 -1.41642,-0.44574 -2.1602,-0.49753 l -1.182,-0.0823 v -2.80894 -2.80895 l 0.85593,-0.10281 c 0.47076,-0.0565 1.16773,-0.10344 1.54883,-0.10422 l 0.69289,-0.001 0.0162,1.6711 c 0.0229,2.34973 0.0716,2.47515 0.98602,2.53501 l 0.74459,0.0487 0.10477,-0.76439 c 0.0576,-0.42042 0.10457,-1.21269 0.10433,-1.7606 -2.5e-4,-0.54791 0.0822,-1.78798 0.18333,-2.7557 0.10108,-0.96772 0.1462,-1.79707 0.10027,-1.84299 -0.0459,-0.0459 -1.10051,0.0317 -2.34353,0.17242 -2.79543,0.31656 -3.7673,0.7288 -4.58326,1.94409 l -0.52986,0.78917 -0.0143,2.38633 c -0.0253,4.2279 -0.19386,4.61019 -2.04974,4.64893 l -0.95211,0.0199 -0.0445,-2.99967 c -0.05,-3.36838 0.0809,-4.3652 0.76513,-5.82742 0.64108,-1.36995 1.58128,-2.343 2.99259,-3.09715 l 1.17783,-0.62938 2.80372,0.0524 c 3.0487,0.057 4.60002,-0.1659 9.08585,-1.3052 3.57743,-0.90859 4.06605,-0.94689 14.35891,-1.12545 12.78991,-0.22188 14.13354,-0.14478 18.66739,1.07114 4.46284,1.19687 5.70403,1.39806 8.5216,1.3813 2.67538,-0.0159 3.45766,0.12837 4.72329,0.87117 1.48124,0.86935 2.79363,2.72064 3.21035,4.52862 0.0915,0.39673 0.16806,2.05212 0.17025,3.67864 0.003,2.59325 -0.0316,3.00131 -0.28542,3.31471 l -0.2894,0.35739 -0.86305,-0.32793 c -1.7592,-0.66844 -1.65579,-0.43315 -1.65579,-3.7676 0,-1.60613 -0.0685,-3.10028 -0.15212,-3.32032 -0.23696,-0.62326 -1.12274,-1.54657 -1.94728,-2.02978 -0.69654,-0.4082 -0.91012,-0.44415 -2.97577,-0.50088 l -2.22537,-0.0611 0.068,0.7109 c 0.0374,0.391 0.13277,1.83967 0.21192,3.21926 0.15748,2.74492 0.19014,2.82296 1.15138,2.75128 0.56901,-0.0424 0.57096,-0.0453 0.68989,-1.02075 0.0656,-0.53801 0.0776,-1.39254 0.0267,-1.89894 l -0.0926,-0.92074 0.66621,-0.11256 c 0.7168,-0.1211 1.93651,0.023 2.23611,0.26425 0.12308,0.0991 0.1813,0.9777 0.17561,2.64992 l -0.009,2.50168 -1.23941,0.26634 c -1.19917,0.25768 -3.65151,1.46243 -3.94939,1.94019 -0.0689,0.11048 -0.22598,0.64107 -0.34909,1.17908 -0.18787,0.82101 -0.20073,4.84261 -0.0801,25.02573 0.0791,13.22613 0.10127,24.21892 0.0493,24.42842 -0.12852,0.51824 -1.47229,1.92861 -1.95231,2.04909 -0.2138,0.0537 -0.57723,0.0259 -0.80762,-0.0617 l -0.4189,-0.15927 -0.01,-22.95107 c -0.007,-17.82689 -0.053,-22.88096 -0.20379,-22.63704 -0.10682,0.17272 -0.57938,0.74066 -1.05014,1.2621 l -0.85593,0.94806 -6e-4,23.11149 c -6e-4,22.6347 -0.007,23.12226 -0.31886,23.63343 -0.48006,0.78733 -1.21039,1.1086 -1.98948,0.87518 -0.34412,-0.1031 -0.64334,-0.20285 -0.66494,-0.22167 -0.0216,-0.0188 -0.0766,-9.80188 -0.12227,-21.74013 l -0.083,-21.70591 -1.01861,0.75604 -1.01861,0.75604 -3.5e-4,22.14817 -3.5e-4,22.14818 -0.55432,0.55431 c -0.6137,0.6137 -1.13539,0.70061 -1.88347,0.31376 l -0.46518,-0.24055 -0.10959,-20.99463 c -0.0603,-11.54704 -0.11184,-21.51572 -0.1146,-22.15261 l -0.005,-1.15798 -1.87441,-0.10045 c -1.97983,-0.1061 -11.58334,7.2e-4 -13.86462,0.15422 -0.97074,0.0653 -1.34503,0.15132 -1.34503,0.30905 0,0.1202 0.35697,0.60677 0.79328,1.08127 l 0.79327,0.86272 6.88224,0.005 6.88224,0.005 -0.12128,0.65213 c -0.0667,0.35868 -0.13914,10.47119 -0.16097,22.47225 l -0.0397,21.82011 -0.35715,0.38017 c -0.70688,0.75244 -1.60996,0.89577 -2.32922,0.36969 -0.27871,-0.20386 -0.29193,-1.21021 -0.28185,-21.46483 0.01,-19.43247 -0.0118,-21.24236 -0.25077,-21.15065 -0.14374,0.0552 -0.64051,0.10028 -1.10394,0.10026 l -0.84259,-2e-5 v 22.67578 22.67579 l -0.45744,0.39355 c -0.58553,0.50377 -1.52811,0.52841 -2.12912,0.0557 z m 12.19211,-54.25703 c 0.26161,-0.0566 0.5026,-0.184 0.53553,-0.28302 0.11475,-0.34502 -1.62682,-1.35439 -2.88607,-1.67271 -2.74443,-0.69374 -13.8805,-0.87178 -16.70695,-0.2671 -1.28837,0.27563 -3.55621,1.49427 -3.64834,1.96047 -0.0548,0.27722 0.28288,0.28664 7.01046,0.19569 3.88741,-0.0525 7.91172,-0.0391 8.94291,0.0299 2.3132,0.15476 6.11198,0.17545 6.75246,0.0368 z m 3.82362,-3.5267 c 0.2788,-1.45169 0.84528,-2.4351 2.39477,-4.15737 2.65992,-2.9565 2.72326,-3.1199 2.57313,-6.6374 l -0.10584,-2.48004 -0.69357,-0.10401 c -1.14121,-0.17113 -1.54673,0.0183 -2.93081,1.36924 -1.49676,1.46091 -2.73739,2.15319 -4.60633,2.57036 -1.07216,0.23932 -1.44642,0.25299 -2.54887,0.0931 -1.50922,-0.21892 -3.03424,-0.88125 -3.96478,-1.72194 -0.35848,-0.32386 -0.69042,-0.58884 -0.73764,-0.58884 -0.14188,0 -0.13259,3.95669 0.0105,4.47281 0.10058,0.36277 0.28821,0.53166 0.7759,0.69841 1.27659,0.43648 1.29539,0.47571 1.29539,2.70323 v 1.9891 l 1.32622,0.12021 c 2.13593,0.1936 4.42203,1.07223 6.17334,2.37264 0.35868,0.26633 0.69682,0.438 0.75143,0.38148 0.0546,-0.0565 0.18384,-0.54294 0.28716,-1.08095 z m -27.57268,0.0781 c 1.83732,-1.02241 3.44566,-1.5905 5.23384,-1.84865 l 1.38807,-0.20039 -0.0423,-1.83128 -0.0423,-1.83129 0.50603,-0.47271 c 0.27832,-0.25998 0.73377,-0.52272 1.01211,-0.58385 l 0.50607,-0.11115 -0.1029,-0.98447 c -0.0566,-0.54146 -0.1029,-1.56958 -0.1029,-2.28472 v -1.30024 l -0.36682,0.26618 c -1.06048,0.7695 -1.62812,1.07722 -2.73598,1.48321 -1.69876,0.62254 -3.336,0.62789 -5.13042,0.0168 -1.70757,-0.58155 -2.55743,-1.14338 -3.98217,-2.63259 l -1.17399,-1.2271 -1.1717,0.0477 -1.1717,0.0477 0.0567,3.01613 c 0.068,3.62088 0.0662,3.6162 2.39037,6.16225 1.23382,1.35164 1.69796,2.01095 2.38156,3.38296 0.46699,0.93727 0.90044,1.70413 0.96323,1.70413 0.0628,0 0.77609,-0.36835 1.58514,-0.81857 z m 16.18143,-3.56483 v -0.95969 l -0.75951,-0.1139 c -0.41774,-0.0626 -0.92396,-0.17642 -1.12494,-0.25283 l -0.36542,-0.13893 v -6.30272 -6.30272 l 0.43204,-0.4791 c 0.38998,-0.43246 0.58007,-0.49544 1.95239,-0.64686 0.83619,-0.0923 3.29393,-0.14473 5.46164,-0.1166 l 3.94129,0.0512 1.33484,0.68958 c 0.73416,0.37928 1.83464,1.01174 2.44551,1.40547 0.61087,0.39373 1.49305,0.9086 1.9604,1.14415 l 0.84973,0.42827 0.25075,-0.84436 c 0.37203,-1.25276 0.33787,-1.37425 -0.52366,-1.86213 -0.42593,-0.24121 -1.37575,-0.83539 -2.11073,-1.32041 -0.73497,-0.48502 -1.98218,-1.1528 -2.77157,-1.48397 l -1.43527,-0.60212 h -5.05405 -5.05406 l -1.27583,0.52987 c -1.53097,0.63582 -1.75329,0.64489 -3.12743,0.12767 -1.69782,-0.63906 -3.45683,-0.79781 -7.51583,-0.67831 -2.56165,0.0754 -3.85831,0.18153 -4.4822,0.36681 -1.15265,0.3423 -3.10978,1.33406 -5.07127,2.56983 -1.52101,0.95827 -1.58269,1.01988 -1.58958,1.58795 -0.004,0.32505 0.0365,0.80919 0.0898,1.07586 l 0.097,0.48486 1.08502,-0.5015 c 0.59677,-0.27583 1.70863,-0.82576 2.47082,-1.22206 0.76218,-0.39631 1.89934,-0.98343 2.52702,-1.30471 l 1.14124,-0.58416 3.89768,-0.0573 c 4.52763,-0.0665 6.39622,0.12015 7.07892,0.70717 l 0.43578,0.37471 0.0462,6.26655 c 0.0386,5.23354 0.008,6.298 -0.18356,6.45728 -0.12638,0.10489 -0.60572,0.28001 -1.06519,0.38915 l -0.83541,0.19845 v 0.93962 0.93962 h 3.42372 3.42371 z m -11.69717,-9.495 c 1.07621,-0.54819 3.53283,-2.25978 3.7049,-2.58129 0.14362,-0.26836 -0.0217,-0.29749 -2.32564,-0.40991 -3.79858,-0.18536 -3.8181,-0.18345 -5.51131,0.53812 -0.83797,0.3571 -1.54849,0.72399 -1.57893,0.81531 -0.0794,0.23811 1.85365,1.51547 2.81661,1.86125 0.97624,0.35054 1.90881,0.27854 2.89437,-0.22348 z m 20.30206,-0.17857 c 0.4907,-0.29401 1.12024,-0.74516 1.39899,-1.00254 l 0.5068,-0.46797 -1.25146,-0.62968 c -1.63701,-0.82367 -2.43343,-0.9957 -3.65142,-0.78872 -0.52873,0.0898 -1.75001,0.16147 -2.71394,0.15916 -0.96394,-0.002 -1.75262,0.0624 -1.75262,0.14373 0,0.2398 3.82181,2.80048 4.72799,3.16783 0.5487,0.22244 1.85821,-0.0561 2.73566,-0.58181 z m -40.72259,45.30825 c -1.43432,-0.59044 -5.13874,-2.64524 -7.1735,-3.97906 -3.60555,-2.36352 -7.16458,-5.35756 -9.72898,-8.18455 -6.47681,-7.14 -10.57454,-14.12868 -13.72532,-23.40854 -0.70115,-2.06508 -1.61106,-6.29437 -2.08702,-9.70052 -0.38953,-2.7877 -0.39118,-9.34119 -0.003,-12.25857 1.01752,-7.64889 2.23575,-12.27892 4.71048,-17.90273 1.7146,-3.89644 3.20586,-6.53586 5.77412,-10.21981 2.38599,-3.42248 4.00949,-5.43299 6.32932,-7.83805 6.28648,-6.51748 12.78112,-10.75228 22.75142,-14.83498 2.90028,-1.18762 3.50473,-1.36742 3.98421,-1.18513 1.56906,0.59656 1.32233,2.62372 -0.40136,3.29758 -0.40136,0.15691 -1.53677,0.59057 -2.52313,0.9637 -2.35537,0.891 -8.17135,3.7428 -10.43417,5.11628 -2.12361,1.28897 -4.54886,3.00046 -6.16874,4.35325 -2.50214,2.08958 -6.23605,5.91349 -7.99502,8.18774 -0.54912,0.70999 -1.26533,1.63605 -1.59157,2.05792 -4.0326,5.21469 -7.88502,13.32158 -9.68115,20.37264 -1.3343,5.23803 -1.9573,10.9344 -1.70584,15.5972 0.39254,7.27906 2.0098,13.60312 5.17488,20.23562 1.9262,4.03639 3.68059,6.87679 6.4097,10.37747 5.5984,7.18117 11.03291,11.68765 18.32029,15.19183 1.00647,0.48397 1.9809,1.04433 2.1654,1.24524 0.47835,0.52091 0.59884,1.27956 0.31218,1.96563 -0.42207,1.01015 -1.20796,1.16942 -2.71311,0.54984 z m 54.66625,-0.17973 c -0.37733,-0.32463 -0.45486,-0.51786 -0.4427,-1.10334 0.008,-0.39037 0.10241,-0.87361 0.20958,-1.07384 0.12373,-0.2312 1.15428,-0.84402 2.82368,-1.67911 6.43927,-3.22113 13.1452,-8.58199 17.37609,-13.89081 2.19556,-2.75493 3.04753,-4.02282 5.17424,-7.70024 3.44426,-5.95567 6.0287,-13.81413 6.78264,-20.62381 0.3142,-2.83785 0.27711,-8.75703 -0.0715,-11.41238 -0.55479,-4.22569 -1.36977,-7.68012 -2.80584,-11.89308 -1.98604,-5.82635 -4.13609,-10.00726 -7.79121,-15.1505 -4.16229,-5.85688 -9.27526,-10.79613 -15.2129,-14.69603 -2.53663,-1.66607 -9.04513,-4.98322 -11.47205,-5.84689 -3.09395,-1.10103 -3.66731,-1.50437 -3.86431,-2.71834 -0.0775,-0.47773 -0.009,-0.63432 0.50589,-1.14878 0.53914,-0.53914 0.66097,-0.58816 1.28414,-0.51674 1.6177,0.18542 9.51982,3.86796 13.6497,6.36101 4.12882,2.49241 6.42456,4.21926 9.89918,7.44612 2.7377,2.5425 4.50524,4.51425 6.82964,7.61875 2.83121,3.78139 4.31189,6.16611 6.26101,10.08371 3.37853,6.79062 5.05586,12.31424 6.01519,19.80863 0.78678,6.14649 0.56751,11.5068 -0.73026,17.85223 -1.11579,5.45561 -3.67419,12.10068 -6.55938,17.03706 -2.57076,4.39839 -5.30374,8.02644 -8.58407,11.39538 -4.93627,5.06962 -10.32762,8.94268 -16.06592,11.54152 -1.80895,0.81926 -2.53677,0.88941 -3.21083,0.30948 z m -55.24549,-8.05875 c -2.6624,-1.28772 -6.70236,-4.23878 -9.68094,-7.07161 -2.98623,-2.84011 -6.34829,-6.97833 -8.71309,-10.72457 -2.43478,-3.85709 -5.09493,-10.0605 -6.22096,-14.50714 -1.00629,-3.97374 -1.5797,-10.70796 -1.22882,-14.4314 0.82253,-8.72853 3.02199,-15.82281 7.15227,-23.06932 4.33424,-7.60437 10.54675,-14.17899 17.77771,-18.81391 3.18678,-2.04268 11.08482,-5.64119 12.38131,-5.64119 0.76122,0 1.40087,0.83932 1.28695,1.68867 -0.13049,0.97289 -0.7283,1.42273 -3.28983,2.47553 -4.56086,1.87452 -8.46035,4.00207 -11.73845,6.40444 -0.80702,0.59143 -1.95853,1.27527 -2.55891,1.51966 -2.34489,0.9545 -2.58331,1.19094 -2.97153,2.94688 -0.0539,0.244 -0.79846,1.22967 -1.65447,2.19038 -4.12885,4.63384 -7.77444,10.57805 -9.75227,15.90127 -2.469,6.64521 -3.47999,12.26659 -3.30774,18.39193 0.13395,4.76323 0.5987,7.77264 1.82527,11.8192 1.14559,3.77943 3.66999,9.23385 5.6707,12.25259 2.61274,3.94219 6.81687,8.59938 10.15635,11.25086 1.58228,1.2563 3.96074,2.79796 6.62113,4.29167 1.66357,0.93402 2.10599,1.79399 1.51294,2.94082 -0.52333,1.01201 -1.44969,1.06452 -3.26762,0.18524 z m 55.57991,0.46501 c -0.81503,-0.32891 -1.0807,-1.30901 -0.64045,-2.3627 0.18454,-0.44166 0.4717,-0.67773 1.38218,-1.13624 1.41563,-0.71289 4.06342,-2.41586 5.80294,-3.73224 3.5515,-2.68758 6.35996,-5.44893 9.01274,-8.86155 2.04104,-2.62567 2.83469,-3.87019 4.43668,-6.95725 1.64525,-3.17041 2.67915,-5.8598 4.08193,-10.61792 0.33645,-1.14123 0.80031,-3.89635 0.98278,-5.8374 0.29252,-3.11158 0.12104,-9.27004 -0.32736,-11.75678 -1.43535,-7.96011 -4.45868,-15.31572 -8.78397,-21.37096 -1.58259,-2.21557 -3.31771,-4.30802 -4.65951,-5.6191 l -0.91199,-0.89112 v -1.26909 c 0,-1.76413 -0.26851,-2.01854 -2.53123,-2.39826 -1.29445,-0.21723 -1.51748,-0.33532 -4.51705,-2.39173 -1.18973,-0.81565 -2.6767,-1.78013 -3.30438,-2.14331 -1.38429,-0.80094 -4.70993,-2.34932 -7.25291,-3.37687 -1.93311,-0.78111 -2.46819,-1.14115 -2.88396,-1.94051 -0.28017,-0.53866 -0.19854,-1.01665 0.27683,-1.62098 0.56555,-0.71898 1.17461,-0.71082 3.18342,0.0427 4.64398,1.74191 11.07708,5.3944 14.89412,8.45636 2.45618,1.9703 6.08827,5.60775 8.08595,8.09788 5.7965,7.2254 9.33588,14.67121 11.23728,23.63994 0.84729,3.99658 0.99162,5.52387 0.97835,10.35266 -0.01,3.62492 -0.0692,4.67329 -0.36809,6.51263 -1.73254,10.66247 -6.79223,20.6891 -14.11637,27.97393 -3.43476,3.41632 -7.74573,6.66784 -11.22201,8.46411 -1.74359,0.90096 -2.16963,1.0127 -2.83592,0.74382 z m -54.63566,-8.1495 c -0.82226,-0.37323 -3.94155,-2.72363 -5.94065,-4.47632 -1.59613,-1.39939 -4.10457,-4.11513 -5.52939,-5.98636 -1.4031,-1.8427 -4.03454,-6.27726 -5.16098,-8.69739 -2.31286,-4.96918 -3.4374,-9.96436 -3.57852,-15.89582 -0.16022,-6.73454 0.97129,-12.51382 3.63359,-18.55872 1.27536,-2.89577 2.95936,-6.01376 4.54437,-8.41408 1.28327,-1.94337 3.65294,-4.58262 4.0082,-4.46419 0.20673,0.0689 1.12997,2.57237 1.13466,3.07673 10e-4,0.13872 -0.29523,0.54223 -0.65895,0.89669 -1.86499,1.81752 -5.49699,8.23274 -7.05677,12.46443 -0.83217,2.25768 -1.8327,6.30309 -2.13069,8.61501 -0.51291,3.97932 -0.27013,9.04063 0.64342,13.41348 1.00919,4.83068 3.19496,9.83765 6.00576,13.75749 3.12345,4.35584 6.49375,7.68755 10.40173,10.28265 1.89607,1.25908 2.2551,1.67046 2.2502,2.57826 -0.004,0.71008 -0.31969,1.23993 -0.9231,1.54852 -0.49569,0.25349 -0.83994,0.22408 -1.64288,-0.14038 z m 54.65897,0.13423 c -0.17934,-0.0981 -0.41777,-0.29329 -0.52986,-0.43379 -0.21406,-0.26832 -0.27648,-1.44432 -0.10094,-1.90178 0.0566,-0.14742 0.77188,-0.71675 1.58958,-1.26519 3.68182,-2.46944 7.10467,-5.70367 9.70712,-9.17218 2.03712,-2.71506 3.03053,-4.38173 4.50061,-7.55081 1.8333,-3.95204 2.92406,-7.98543 3.35903,-12.42086 0.23662,-2.41285 0.0957,-7.91647 -0.2525,-9.86356 -1.22102,-6.82729 -4.01321,-13.14417 -8.45397,-19.12576 l -1.36716,-1.84154 0.36589,-1.37022 c 0.41755,-1.56365 0.48691,-1.71001 0.81036,-1.71001 0.65718,0 2.98893,2.72877 4.87299,5.70269 3.32892,5.25457 5.41142,10.31568 6.60306,16.04749 1.36281,6.55517 1.08142,13.62815 -0.80812,20.31261 -0.68795,2.43372 -1.2426,3.79687 -2.85814,7.02447 -2.10685,4.20917 -5.01715,8.29986 -7.91848,11.13013 -1.95023,1.90247 -3.84222,3.55912 -5.3621,4.69513 -2.42628,1.81348 -3.33343,2.19384 -4.15737,1.74318 z m 0.7326,-12.99735 c -1.25,-0.4091 -2.69362,-1.48755 -3.43641,-2.56716 -1.09101,-1.58573 -1.27991,-4.61343 -0.40343,-6.46616 0.51868,-1.09639 1.71385,-2.38539 2.6587,-2.86742 0.97366,-0.49672 2.73756,-0.73355 3.88445,-0.52153 1.77574,0.32826 3.32646,1.66001 4.34557,3.73195 0.49183,0.99993 0.53264,1.20465 0.52532,2.63544 -0.014,2.73393 -1.03151,4.38403 -3.43211,5.56584 -0.89964,0.44289 -1.29089,0.53661 -2.40398,0.57588 -0.73121,0.0258 -1.51336,-0.0133 -1.73811,-0.0868 z m 3.14877,-3.07756 c 1.3677,-0.80147 1.88108,-2.31111 1.33997,-3.94027 -0.74828,-2.25285 -2.86998,-3.07737 -4.63283,-1.80037 -2.06768,1.49782 -1.67299,4.77772 0.70902,5.89199 0.76828,0.35939 1.81711,0.29796 2.58384,-0.15135 z m -2.5518,-1.83327 c -0.77991,-0.68476 -0.82163,-1.43005 -0.11935,-2.13232 0.64492,-0.64492 1.20389,-0.62209 1.90373,0.0778 0.96407,0.96406 0.64383,2.28457 -0.60239,2.484 -0.4983,0.0797 -0.67533,0.0154 -1.18199,-0.42944 z m -58.34622,4.6405 c -0.42345,-0.13539 -1.23047,-0.59849 -1.79337,-1.02912 -0.80362,-0.61478 -1.14603,-1.02195 -1.59408,-1.89559 -0.55541,-1.08296 -0.57062,-1.16306 -0.57062,-3.00396 0,-1.73841 0.0367,-1.96598 0.45345,-2.8147 0.94496,-1.92426 2.89704,-3.22072 5.05826,-3.35942 2.32525,-0.14923 3.7862,0.47191 5.15579,2.19205 0.92443,1.16103 1.15295,1.79431 1.14967,3.18598 -0.004,1.63611 -0.49141,3.40061 -1.23995,4.48747 -0.66265,0.96214 -1.20938,1.43071 -2.344,2.00895 -0.94266,0.48041 -3.12257,0.59684 -4.27515,0.22834 z m 3.84497,-3.22676 c 0.84053,-0.64111 1.13849,-1.30241 1.15133,-2.55531 0.0125,-1.21535 -0.48136,-2.44391 -1.16141,-2.8895 -0.93293,-0.61128 -2.95377,-0.5182 -3.86667,0.1781 -0.64657,0.49317 -1.23623,1.67146 -1.23623,2.47031 0,1.12896 0.93421,2.69666 1.85518,3.1132 0.3186,0.14409 0.91171,0.21252 1.58653,0.18303 0.88404,-0.0386 1.18437,-0.12846 1.67127,-0.49983 z m -2.72803,-1.42672 c -0.63447,-0.49907 -0.78526,-0.86343 -0.58074,-1.40323 0.47585,-1.2559 1.58335,-1.57998 2.44722,-0.71611 0.60754,0.60755 0.62618,1.27701 0.0545,1.95644 -0.51161,0.60802 -1.27301,0.67258 -1.92096,0.1629 z m 68.02948,-13.70401 c -0.32279,-0.1872 -0.71219,-0.55248 -0.86532,-0.81172 -0.27436,-0.46444 -0.26766,-0.49583 0.45679,-2.14215 0.98283,-2.23347 1.1178,-2.82548 1.12431,-4.93148 0.009,-3.04105 -0.72693,-5.17357 -2.63918,-7.64338 -0.54722,-0.70678 -0.99495,-1.3431 -0.99495,-1.41404 0,-0.24543 0.85585,-1.14487 1.3156,-1.38262 0.70337,-0.36373 1.0495,-0.29182 1.59704,0.3318 2.59184,2.95195 4.12578,8.06043 3.63049,12.09068 -0.19969,1.62493 -0.74045,3.44273 -1.44722,4.86499 -0.74074,1.4906 -1.10097,1.6623 -2.17756,1.03792 z m -78.86803,-0.19655 c -0.46332,-0.49318 -1.44522,-2.82406 -1.76216,-4.18309 -0.14992,-0.64289 -0.24823,-1.86133 -0.24992,-3.09765 -0.005,-3.34674 0.74773,-6.07736 2.41275,-8.75752 1.13135,-1.82114 1.73031,-2.39502 2.36678,-2.26773 0.66158,0.13232 1.26087,0.56209 1.54206,1.10586 0.28996,0.56071 0.17522,0.83604 -0.81274,1.95027 -1.943,2.19133 -2.84757,4.99336 -2.65064,8.21071 0.12136,1.98276 0.34769,2.82877 1.26042,4.71144 l 0.7019,1.4478 -0.67634,0.63088 c -0.81921,0.76415 -1.56621,0.8514 -2.13211,0.24903 z m 4.17705,-3.81627 c -0.51248,-0.58199 -1.10818,-2.01797 -1.29918,-3.13179 -0.25114,-1.46458 0.0101,-3.4555 0.61599,-4.69384 0.51524,-1.0531 1.87062,-2.48627 2.35133,-2.48627 0.19105,0 0.50762,0.0822 0.70348,0.1826 0.48571,0.24905 1.41583,1.14484 1.41583,1.36357 0,0.0979 -0.35655,0.52913 -0.79233,0.95836 -1.73352,1.70746 -1.99651,3.18611 -0.95756,5.38379 l 0.6077,1.28545 -0.71173,0.71172 c -0.78483,0.78484 -1.48244,0.93868 -1.93353,0.42641 z m 70.46836,0.007 c -0.90051,-0.33111 -1.03314,-1.09538 -0.40515,-2.33466 0.22551,-0.44502 0.45581,-1.24722 0.51178,-1.78265 0.15169,-1.45133 -0.15265,-2.32101 -1.19483,-3.4143 -0.94108,-0.98724 -0.98488,-1.11018 -0.63588,-1.78506 0.50927,-0.98483 1.74864,-1.11036 2.67751,-0.27119 1.78409,1.61182 2.51121,4.90558 1.65829,7.51177 -0.52785,1.61289 -0.99931,2.1952 -1.76409,2.17888 -0.33169,-0.007 -0.71313,-0.0533 -0.84763,-0.10279 z m -60.61799,-4.72887 c -0.0825,-0.16007 -0.31537,-0.79482 -0.51752,-1.41054 -0.38002,-1.15747 -0.32719,-1.39811 0.30849,-1.40504 0.12606,-10e-4 1.00645,-0.21487 1.9564,-0.47445 5.33256,-1.45714 8.43818,-2.0355 15.50357,-2.88723 2.95802,-0.35659 13.22502,-0.50262 16.38492,-0.23305 3.25304,0.27752 9.48896,1.21904 12.37363,1.86821 1.35436,0.30479 2.90266,0.64295 3.44067,0.75148 1.07384,0.21661 3.34845,0.93827 3.55237,1.12705 0.1219,0.11286 -0.53044,2.66563 -0.73293,2.86812 -0.17768,0.17768 -4.52707,-0.73938 -9.3408,-1.9695 -4.15212,-1.06104 -7.9692,-1.39715 -16.05885,-1.41407 -9.2258,-0.0193 -13.16074,0.3433 -18.99346,1.75015 -3.86526,0.9323 -6.07488,1.43334 -7.12393,1.61536 -0.48154,0.0836 -0.6327,0.0461 -0.75256,-0.18649 z m -1.25493,-5.2931 c -0.0448,-0.11827 -0.25869,-0.86101 -0.47535,-1.65054 l -0.39392,-1.43551 0.43539,-0.17106 c 0.93811,-0.36858 4.02993,-1.15583 7.60889,-1.93739 9.87698,-2.1569 20.43887,-2.91924 28.2226,-2.03707 5.70227,0.64627 11.75066,1.70999 16.61175,2.92148 0.89669,0.22348 2.09533,0.49511 2.66364,0.60362 0.56832,0.10852 1.07049,0.29421 1.11594,0.41265 0.0455,0.11844 -0.0311,0.52948 -0.17003,0.91342 -0.13896,0.38393 -0.33595,1.12674 -0.43775,1.65067 -0.16806,0.86503 -0.21746,0.94316 -0.5372,0.84977 -2.59925,-0.75916 -9.22301,-2.30125 -11.92754,-2.77685 -4.99328,-0.87809 -8.58936,-1.14546 -15.32519,-1.13941 -6.25577,0.006 -8.45486,0.14156 -13.28727,0.82143 -4.36947,0.61473 -8.71479,1.59662 -13.73642,3.10394 -0.15737,0.0472 -0.32276,-0.0109 -0.36754,-0.12915 z m -1.53263,-6.12502 c -0.55814,-2.1204 -0.69675,-2.84704 -0.56693,-2.97187 0.19364,-0.18619 6.02195,-1.63839 10.17126,-2.53431 3.69125,-0.79702 8.28932,-1.57569 11.51353,-1.9498 1.15489,-0.134 2.39491,-0.28699 2.75559,-0.33997 0.56403,-0.0829 0.76931,-0.0186 1.4673,0.45916 1.03837,0.71077 1.67614,0.92537 3.11038,1.04661 1.73169,0.14638 3.8459,-0.47889 4.90627,-1.45101 0.37153,-0.3406 0.57345,-0.33832 1.92478,0.0217 0.35868,0.0956 1.7893,0.32257 3.17917,0.50446 5.6023,0.73318 9.1332,1.40285 15.60939,2.9605 3.55105,0.8541 4.80921,1.25269 4.71169,1.4927 -0.0434,0.10673 -0.24663,0.91137 -0.45172,1.7881 -0.30215,1.2917 -0.42059,1.57442 -0.62439,1.49055 -0.30245,-0.12447 -1.62154,-0.49121 -4.57191,-1.2711 -8.50856,-2.24913 -19.31137,-3.58666 -26.72459,-3.30886 -4.87838,0.18282 -11.0322,0.96901 -16.86472,2.15458 -3.04603,0.61916 -7.18407,1.72141 -8.79598,2.34296 -0.60924,0.23493 -0.56641,0.25977 -0.74912,-0.4344 z m -1.77331,-7.65685 c -0.67147,-3.14119 -1.88114,-8.37355 -2.37153,-10.25788 -0.46222,-1.77612 -0.39156,-2.01656 0.59227,-2.01531 1.99445,0.002 11.02077,1.95415 16.33606,3.53208 2.2441,0.6662 3.96361,1.25597 7.76045,2.66172 l 1.40211,0.51912 -0.0163,1.08578 c -0.009,0.59718 0.0445,1.32422 0.1189,1.61564 l 0.13523,0.52987 h -0.80168 c -1.4972,0 -8.42046,1.10901 -12.10391,1.93888 -2.01755,0.45455 -4.21851,0.94725 -4.89102,1.09491 -1.09155,0.23965 -4.7323,1.31874 -5.39042,1.59768 -0.21277,0.0902 -0.33994,-0.29004 -0.77013,-2.30249 z m 60.76276,2.16744 c -0.16873,-0.16873 -8.19654,-2.06679 -12.84805,-3.03774 -0.84225,-0.17581 -3.18994,-0.54026 -5.21709,-0.80989 -2.02715,-0.26962 -3.90582,-0.52579 -4.17482,-0.56925 l -0.4891,-0.079 v -1.6251 -1.62472 l 2.44551,-0.88825 c 6.37621,-2.31597 9.16941,-3.1813 13.20575,-4.09113 1.4347,-0.32339 3.60924,-0.83872 4.83231,-1.14517 2.54034,-0.6365 5.0419,-0.90104 5.43505,-0.57475 0.13658,0.11335 0.24813,0.39887 0.24787,0.63448 -4.4e-4,0.40266 -0.67526,3.48638 -2.03814,9.31374 -0.32505,1.38986 -0.68354,2.96296 -0.79663,3.49576 -0.18508,0.87194 -0.39042,1.2129 -0.60266,1.00066 z m -31.91314,-3.45322 c -1.7704,-0.87395 -2.62626,-2.17461 -2.63231,-4.00034 -0.005,-1.50905 0.55727,-2.56611 1.9107,-3.59212 1.24807,-0.94614 2.39861,-1.2421 3.76324,-0.96804 2.28093,0.45807 3.61542,2.08928 3.61542,4.41927 0,1.91824 -0.7804,3.19418 -2.42781,3.96947 -1.5183,0.71452 -3.00722,0.77499 -4.22924,0.17176 z m 3.24588,-2.82442 c 0.58609,-0.58609 0.65414,-1.07074 0.28324,-2.01739 -0.32464,-0.82857 -1.76178,-1.22244 -2.52073,-0.69085 -0.50996,0.35719 -0.91419,1.32049 -0.79047,1.88377 0.27734,1.26272 2.09483,1.7576 3.02796,0.82447 z m -9.55003,-4.59399 c -4.73429,-1.77772 -8.213,-2.91458 -8.92612,-2.9171 -0.15692,-5.6e-4 -0.28531,-0.0613 -0.28531,-0.13498 0,-0.0737 0.82463,-0.75232 1.8325,-1.50807 1.00787,-0.75575 2.34679,-1.78619 2.97537,-2.28986 6.18881,-3.82633 9.64873,-11.81528 15.97897,-7.11425 0.98636,0.72599 2.27025,1.68125 2.8531,2.12281 0.58284,0.44156 2.01347,1.52344 3.17916,2.40417 1.16569,0.88073 2.85309,2.1607 3.74978,2.84437 0.89669,0.68367 2.27229,1.72375 3.05689,2.31129 0.7846,0.58755 1.42655,1.11702 1.42655,1.17661 0,0.0596 -0.60527,0.24395 -1.34503,0.40969 -1.63135,0.3655 -5.4562,1.60825 -7.77135,2.52503 l -1.69832,0.67253 -1.15477,-1.20314 c -1.47959,-1.54155 -2.03001,-1.93228 -3.47823,-2.46909 l -1.18177,-0.43804 -0.0115,-1.97828 c -0.006,-1.08805 -0.0745,-2.125 -0.15158,-2.30434 -0.0771,-0.17934 -0.14548,-0.2527 -0.15205,-0.16304 -0.007,0.0897 -0.27042,0.16862 -0.58634,0.17545 -0.31591,0.007 -0.64987,0.0879 -0.74211,0.18013 -0.25065,0.25065 -0.50501,2.30961 -0.39052,3.1611 0.11426,0.84976 0.0148,0.98031 -0.98207,1.28967 -1.44723,0.44911 -3.08026,1.69072 -4.01981,3.05631 -0.26361,0.38315 -0.56747,0.69306 -0.67525,0.6887 -0.10778,-0.004 -0.78288,-0.22831 -1.50023,-0.49767 z m -1.88404,-31.93438 c -231.19434,-126.66807 296.65865,162.53503 0,0 z"
       id="path2" /></g></svg>
